<?xml version="1.0" encoding="utf-8"?>
<!-- Generator: Adobe Illustrator 25.0.0, SVG Export Plug-In . SVG Version: 6.00 Build 0)  -->
<svg version="1.1" id="圖層_1" xmlns="http://www.w3.org/2000/svg" xmlns:xlink="http://www.w3.org/1999/xlink" x="0px" y="0px"
	 viewBox="0 0 24 24" style="enable-background:new 0 0 24 24;" xml:space="preserve">
<style type="text/css">
	.st0{fill:none;}
	.st1{fill:#70ADB5;}
</style>
<path class="st0" d="M0,0h24v24H0V0z"/>
<path class="st1" d="M17,12h-5v5h5V12z M16,1v2H8V1H6v2H5C3.9,3,3,3.9,3,5l0,14c0,1.1,0.9,2,2,2h14c1.1,0,2-0.9,2-2V5
	c0-1.1-0.9-2-2-2h-1V1H16z M19,19H5V8h14V19z"/>
<rect x="42.7" y="-4.7" class="st1" width="27.2" height="27.2"/>
</svg>
